<svg width="512" height="512" viewBox="0 0 512 512" fill="none" xmlns="http://www.w3.org/2000/svg">
<g clip-path="url(#clip0_653_9)">
<rect width="512" height="512" fill="white"/>
<g filter="url(#filter0_diii_653_9)">
<path d="M0 0H512V512H0V0Z" fill="#0E0E0F"/>
<path d="M0 0H512V512H0V0Z" fill="url(#paint0_radial_653_9)" fill-opacity="0.2"/>
</g>
<path d="M239.489 96.3993C213.094 99.0325 186.198 108.938 164.882 123.797C149.835 134.33 133.472 150.819 123.566 165.552C99.6793 200.975 90.9647 243.482 98.8016 286.302C99.6793 290.942 100.557 294.954 100.808 295.205C101.059 295.393 117.359 286.804 137.045 276.083L172.844 256.585L173.283 248.685C174.474 225.112 183.314 204.862 198.8 190.066C210.336 179.031 223.815 172.26 240.367 169.251C249.019 167.621 265.445 167.809 273.783 169.627C284.379 171.821 293.469 175.583 302.059 181.1C305.444 183.295 306.196 183.545 307.45 182.981C308.642 182.479 340.867 164.925 369.205 149.502L373.782 146.931L368.891 141.979C345.694 118.468 312.905 102.418 277.608 97.2771C269.645 96.0858 247.514 95.5843 239.489 96.3993Z" fill="white"/>
<path d="M375.537 236.146L340.114 255.519L339.675 262.29C338.359 281.663 333.97 295.519 325.005 308.998C313.03 326.991 294.096 338.841 270.523 343.167C261.871 344.797 246.009 344.609 237.796 342.853C227.201 340.534 217.671 336.646 209.897 331.38C207.891 330.001 206.135 328.935 205.947 328.935C205.446 328.935 139.553 364.796 138.863 365.423C137.923 366.301 150.65 378.401 159.553 385.047C181.621 401.598 205.759 411.379 234.787 415.579C243.188 416.771 267.451 416.583 276.792 415.203C316.854 409.435 349.769 392.445 375.662 364.232C405.254 331.882 420.176 287.243 416.289 242.416C415.348 231.507 412.527 216.648 411.398 216.774C411.148 216.774 395.035 225.488 375.537 236.146Z" fill="white"/>
</g>
<defs>
<filter id="filter0_diii_653_9" x="-26.468" y="-33.085" width="564.936" height="584.787" filterUnits="userSpaceOnUse" color-interpolation-filters="sRGB">
<feFlood flood-opacity="0" result="BackgroundImageFix"/>
<feColorMatrix in="SourceAlpha" type="matrix" values="0 0 0 0 0 0 0 0 0 0 0 0 0 0 0 0 0 0 127 0" result="hardAlpha"/>
<feOffset dy="13.234"/>
<feGaussianBlur stdDeviation="13.234"/>
<feColorMatrix type="matrix" values="0 0 0 0 0 0 0 0 0 0 0 0 0 0 0 0 0 0 0.4 0"/>
<feBlend mode="normal" in2="BackgroundImageFix" result="effect1_dropShadow_653_9"/>
<feBlend mode="normal" in="SourceGraphic" in2="effect1_dropShadow_653_9" result="shape"/>
<feColorMatrix in="SourceAlpha" type="matrix" values="0 0 0 0 0 0 0 0 0 0 0 0 0 0 0 0 0 0 127 0" result="hardAlpha"/>
<feOffset/>
<feGaussianBlur stdDeviation="19.851"/>
<feComposite in2="hardAlpha" operator="arithmetic" k2="-1" k3="1"/>
<feColorMatrix type="matrix" values="0 0 0 0 1 0 0 0 0 1 0 0 0 0 1 0 0 0 0.6 0"/>
<feBlend mode="normal" in2="shape" result="effect2_innerShadow_653_9"/>
<feColorMatrix in="SourceAlpha" type="matrix" values="0 0 0 0 0 0 0 0 0 0 0 0 0 0 0 0 0 0 127 0" result="hardAlpha"/>
<feOffset dy="-33.085"/>
<feGaussianBlur stdDeviation="16.5425"/>
<feComposite in2="hardAlpha" operator="arithmetic" k2="-1" k3="1"/>
<feColorMatrix type="matrix" values="0 0 0 0 1 0 0 0 0 1 0 0 0 0 1 0 0 0 0.25 0"/>
<feBlend mode="normal" in2="effect2_innerShadow_653_9" result="effect3_innerShadow_653_9"/>
<feColorMatrix in="SourceAlpha" type="matrix" values="0 0 0 0 0 0 0 0 0 0 0 0 0 0 0 0 0 0 127 0" result="hardAlpha"/>
<feOffset dy="-13.234"/>
<feGaussianBlur stdDeviation="13.234"/>
<feComposite in2="hardAlpha" operator="arithmetic" k2="-1" k3="1"/>
<feColorMatrix type="matrix" values="0 0 0 0 0 0 0 0 0 0 0 0 0 0 0 0 0 0 1 0"/>
<feBlend mode="normal" in2="effect3_innerShadow_653_9" result="effect4_innerShadow_653_9"/>
</filter>
<radialGradient id="paint0_radial_653_9" cx="0" cy="0" r="1" gradientUnits="userSpaceOnUse" gradientTransform="translate(256) rotate(90) scale(204.738)">
<stop stop-color="white"/>
<stop offset="1" stop-color="white" stop-opacity="0"/>
</radialGradient>
<clipPath id="clip0_653_9">
<rect width="512" height="512" fill="white"/>
</clipPath>
</defs>
</svg>
